<?xml version="1.0" encoding="UTF-8"?>
<svg width="512pt" height="512pt" version="1.1" viewBox="0 0 512 512" xmlns="http://www.w3.org/2000/svg">
 <path d="m36.895 39.738c-6.3594 0-11.504-5.1445-11.504-11.504s5.1445-11.504 11.504-11.504h90.332c5.5742 0 10.23 3.9766 11.289 9.2461l10.105 34.516h326.48c6.3594 0 11.504 5.1445 11.504 11.504 0 1.3516-0.23047 2.6562-0.67578 3.8711l-54.559 192.46c-1.1055 5.207-5.7305 9.1094-11.258 9.1094h-234.53c-11.504 0-21.965 4.6992-29.539 12.273-7.5742 7.5742-12.273 18.031-12.273 29.539v0.29297c0 11.504 4.6992 21.965 12.273 29.539s18.031 12.273 29.539 12.273h270.11c6.3594 0 11.52 5.1445 11.52 11.504s-5.1602 11.52-11.52 11.52h-270.11c-17.863 0-34.07-7.2812-45.805-19.016-11.734-11.75-19.016-27.957-19.016-45.805v-0.29297c0-17.863 7.2812-34.07 19.016-45.805 10.844-10.844 25.512-17.895 41.781-18.895l-52.223-178.35c-0.24609-0.62891-0.42969-1.2734-0.56641-1.9492l-10.105-34.5h-81.762zm351.58 369.21c11.918 0 22.703 4.8398 30.52 12.641 7.8164 7.8164 12.641 18.602 12.641 30.52s-4.8398 22.703-12.641 30.52c-7.8047 7.8164-18.602 12.641-30.52 12.641-11.918 0-22.719-4.8398-30.52-12.641-7.8164-7.8164-12.641-18.602-12.641-30.52s4.8398-22.703 12.641-30.52c7.8047-7.8047 18.602-12.641 30.52-12.641zm14.254 28.922c-3.6406-3.6406-8.6797-5.8984-14.254-5.8984-5.5742 0-10.613 2.2578-14.254 5.8984s-5.8984 8.6797-5.8984 14.254c0 5.5586 2.2578 10.598 5.8984 14.254 3.6406 3.6406 8.6797 5.8984 14.254 5.8984 5.5586 0 10.598-2.2578 14.254-5.8984 3.6406-3.6406 5.8984-8.6797 5.8984-14.254 0-5.5586-2.2578-10.598-5.8984-14.254zm-205.57-28.922c11.918 0 22.719 4.8398 30.52 12.641 7.8164 7.8164 12.641 18.602 12.641 30.52s-4.8398 22.703-12.641 30.52c-7.8047 7.8164-18.602 12.641-30.52 12.641-11.918 0-22.703-4.8398-30.52-12.641-7.8047-7.8164-12.641-18.602-12.641-30.52s4.8398-22.703 12.641-30.52c7.8164-7.8047 18.602-12.641 30.52-12.641zm14.254 28.922c-3.6406-3.6406-8.6797-5.8984-14.254-5.8984-5.5586 0-10.598 2.2578-14.254 5.8984-3.6406 3.6406-5.8984 8.6797-5.8984 14.254 0 5.5586 2.2578 10.598 5.8984 14.254 3.6406 3.6406 8.6797 5.8984 14.254 5.8984 5.5586 0 10.613-2.2578 14.254-5.8984 3.6406-3.6406 5.8984-8.6797 5.8984-14.254 0-5.5586-2.2578-10.598-5.8984-14.254zm200.05-183.46 48.461-170.91h-304.53l50.043 170.91z"/>
</svg>
